<mxfile host="app.diagrams.net" agent="Mozilla/5.0 (Windows NT 10.0; Win64; x64) AppleWebKit/537.36 (KHTML, like Gecko) Chrome/139.0.0.0 Safari/537.36" version="28.1.2">
  <diagram name="Página-1" id="xxEP4BTJGKIkhVGJT2ZD">
    <mxGraphModel dx="1381" dy="1952" grid="1" gridSize="10" guides="1" tooltips="1" connect="1" arrows="1" fold="1" page="1" pageScale="1" pageWidth="1654" pageHeight="1169" math="0" shadow="0">
      <root>
        <mxCell id="0" />
        <mxCell id="1" parent="0" />
        <mxCell id="h-7iVmk48eLcXwS1K5LQ-71" value="" style="edgeStyle=orthogonalEdgeStyle;rounded=0;orthogonalLoop=1;jettySize=auto;html=1;" edge="1" parent="1" source="h-7iVmk48eLcXwS1K5LQ-2" target="h-7iVmk48eLcXwS1K5LQ-70">
          <mxGeometry relative="1" as="geometry" />
        </mxCell>
        <mxCell id="h-7iVmk48eLcXwS1K5LQ-2" value="Clientes" style="rounded=1;whiteSpace=wrap;html=1;" vertex="1" parent="1">
          <mxGeometry x="460" y="-20" width="120" height="60" as="geometry" />
        </mxCell>
        <mxCell id="h-7iVmk48eLcXwS1K5LQ-63" value="" style="edgeStyle=orthogonalEdgeStyle;rounded=0;orthogonalLoop=1;jettySize=auto;html=1;" edge="1" parent="1" source="h-7iVmk48eLcXwS1K5LQ-4" target="h-7iVmk48eLcXwS1K5LQ-62">
          <mxGeometry relative="1" as="geometry" />
        </mxCell>
        <mxCell id="h-7iVmk48eLcXwS1K5LQ-75" value="" style="edgeStyle=orthogonalEdgeStyle;rounded=0;orthogonalLoop=1;jettySize=auto;html=1;" edge="1" parent="1" source="h-7iVmk48eLcXwS1K5LQ-4" target="h-7iVmk48eLcXwS1K5LQ-74">
          <mxGeometry relative="1" as="geometry" />
        </mxCell>
        <mxCell id="h-7iVmk48eLcXwS1K5LQ-3" value="Pedidos" style="rounded=1;whiteSpace=wrap;html=1;" vertex="1" parent="1">
          <mxGeometry x="170" y="640" width="120" height="60" as="geometry" />
        </mxCell>
        <mxCell id="h-7iVmk48eLcXwS1K5LQ-4" value="Entregadores" style="rounded=1;whiteSpace=wrap;html=1;" vertex="1" parent="1">
          <mxGeometry x="705" y="705" width="120" height="60" as="geometry" />
        </mxCell>
        <mxCell id="h-7iVmk48eLcXwS1K5LQ-28" style="edgeStyle=orthogonalEdgeStyle;rounded=0;orthogonalLoop=1;jettySize=auto;html=1;entryX=0;entryY=0.75;entryDx=0;entryDy=0;" edge="1" parent="1" source="h-7iVmk48eLcXwS1K5LQ-21" target="h-7iVmk48eLcXwS1K5LQ-3">
          <mxGeometry relative="1" as="geometry" />
        </mxCell>
        <mxCell id="h-7iVmk48eLcXwS1K5LQ-21" value="endereço" style="ellipse;whiteSpace=wrap;html=1;align=center;" vertex="1" parent="1">
          <mxGeometry x="20" y="775" width="100" height="40" as="geometry" />
        </mxCell>
        <mxCell id="h-7iVmk48eLcXwS1K5LQ-29" style="edgeStyle=orthogonalEdgeStyle;rounded=0;orthogonalLoop=1;jettySize=auto;html=1;entryX=0;entryY=1;entryDx=0;entryDy=0;" edge="1" parent="1" source="h-7iVmk48eLcXwS1K5LQ-24" target="h-7iVmk48eLcXwS1K5LQ-3">
          <mxGeometry relative="1" as="geometry" />
        </mxCell>
        <mxCell id="h-7iVmk48eLcXwS1K5LQ-24" value="horário_desejado" style="ellipse;whiteSpace=wrap;html=1;align=center;" vertex="1" parent="1">
          <mxGeometry x="150" y="855" width="100" height="40" as="geometry" />
        </mxCell>
        <mxCell id="h-7iVmk48eLcXwS1K5LQ-33" style="edgeStyle=orthogonalEdgeStyle;rounded=0;orthogonalLoop=1;jettySize=auto;html=1;exitX=1;exitY=0;exitDx=0;exitDy=0;entryX=1;entryY=0.5;entryDx=0;entryDy=0;" edge="1" parent="1" source="h-7iVmk48eLcXwS1K5LQ-25" target="h-7iVmk48eLcXwS1K5LQ-3">
          <mxGeometry relative="1" as="geometry" />
        </mxCell>
        <mxCell id="h-7iVmk48eLcXwS1K5LQ-25" value="clientes" style="ellipse;whiteSpace=wrap;html=1;align=center;" vertex="1" parent="1">
          <mxGeometry x="360" y="765" width="100" height="40" as="geometry" />
        </mxCell>
        <mxCell id="h-7iVmk48eLcXwS1K5LQ-30" style="edgeStyle=orthogonalEdgeStyle;rounded=0;orthogonalLoop=1;jettySize=auto;html=1;entryX=0.75;entryY=1;entryDx=0;entryDy=0;" edge="1" parent="1" source="h-7iVmk48eLcXwS1K5LQ-26" target="h-7iVmk48eLcXwS1K5LQ-3">
          <mxGeometry relative="1" as="geometry" />
        </mxCell>
        <mxCell id="h-7iVmk48eLcXwS1K5LQ-26" value="id_Pedido" style="ellipse;whiteSpace=wrap;html=1;align=center;" vertex="1" parent="1">
          <mxGeometry x="270" y="855" width="100" height="40" as="geometry" />
        </mxCell>
        <mxCell id="h-7iVmk48eLcXwS1K5LQ-39" style="edgeStyle=orthogonalEdgeStyle;rounded=0;orthogonalLoop=1;jettySize=auto;html=1;entryX=0.5;entryY=0;entryDx=0;entryDy=0;" edge="1" parent="1" source="h-7iVmk48eLcXwS1K5LQ-35" target="h-7iVmk48eLcXwS1K5LQ-2">
          <mxGeometry relative="1" as="geometry" />
        </mxCell>
        <mxCell id="h-7iVmk48eLcXwS1K5LQ-35" value="cpf" style="ellipse;whiteSpace=wrap;html=1;align=center;fontStyle=4;" vertex="1" parent="1">
          <mxGeometry x="500" y="-130" width="100" height="40" as="geometry" />
        </mxCell>
        <mxCell id="h-7iVmk48eLcXwS1K5LQ-40" style="edgeStyle=orthogonalEdgeStyle;rounded=0;orthogonalLoop=1;jettySize=auto;html=1;entryX=1;entryY=0.5;entryDx=0;entryDy=0;" edge="1" parent="1" source="h-7iVmk48eLcXwS1K5LQ-36" target="h-7iVmk48eLcXwS1K5LQ-2">
          <mxGeometry relative="1" as="geometry">
            <Array as="points">
              <mxPoint x="805" y="-120" />
              <mxPoint x="805" y="10" />
            </Array>
          </mxGeometry>
        </mxCell>
        <mxCell id="h-7iVmk48eLcXwS1K5LQ-36" value="nome" style="ellipse;whiteSpace=wrap;html=1;align=center;" vertex="1" parent="1">
          <mxGeometry x="610" y="-130" width="100" height="40" as="geometry" />
        </mxCell>
        <mxCell id="h-7iVmk48eLcXwS1K5LQ-38" style="edgeStyle=orthogonalEdgeStyle;rounded=0;orthogonalLoop=1;jettySize=auto;html=1;entryX=0;entryY=0.5;entryDx=0;entryDy=0;" edge="1" parent="1" source="h-7iVmk48eLcXwS1K5LQ-37" target="h-7iVmk48eLcXwS1K5LQ-2">
          <mxGeometry relative="1" as="geometry" />
        </mxCell>
        <mxCell id="h-7iVmk48eLcXwS1K5LQ-37" value="endereço" style="ellipse;whiteSpace=wrap;html=1;align=center;" vertex="1" parent="1">
          <mxGeometry x="390" y="-130" width="100" height="40" as="geometry" />
        </mxCell>
        <mxCell id="h-7iVmk48eLcXwS1K5LQ-43" style="edgeStyle=orthogonalEdgeStyle;rounded=0;orthogonalLoop=1;jettySize=auto;html=1;entryX=0;entryY=0.5;entryDx=0;entryDy=0;" edge="1" parent="1" source="h-7iVmk48eLcXwS1K5LQ-41" target="h-7iVmk48eLcXwS1K5LQ-4">
          <mxGeometry relative="1" as="geometry" />
        </mxCell>
        <mxCell id="h-7iVmk48eLcXwS1K5LQ-41" value="nome" style="ellipse;whiteSpace=wrap;html=1;align=center;" vertex="1" parent="1">
          <mxGeometry x="640" y="895" width="100" height="40" as="geometry" />
        </mxCell>
        <mxCell id="h-7iVmk48eLcXwS1K5LQ-44" style="edgeStyle=orthogonalEdgeStyle;rounded=0;orthogonalLoop=1;jettySize=auto;html=1;entryX=1;entryY=0.5;entryDx=0;entryDy=0;" edge="1" parent="1" source="h-7iVmk48eLcXwS1K5LQ-42" target="h-7iVmk48eLcXwS1K5LQ-4">
          <mxGeometry relative="1" as="geometry" />
        </mxCell>
        <mxCell id="h-7iVmk48eLcXwS1K5LQ-42" value="id_trabalho" style="ellipse;whiteSpace=wrap;html=1;align=center;fontStyle=4;" vertex="1" parent="1">
          <mxGeometry x="820" y="890" width="100" height="40" as="geometry" />
        </mxCell>
        <mxCell id="h-7iVmk48eLcXwS1K5LQ-46" value="Entrega" style="rounded=1;whiteSpace=wrap;html=1;" vertex="1" parent="1">
          <mxGeometry x="720" y="330" width="120" height="60" as="geometry" />
        </mxCell>
        <mxCell id="h-7iVmk48eLcXwS1K5LQ-52" style="edgeStyle=orthogonalEdgeStyle;rounded=0;orthogonalLoop=1;jettySize=auto;html=1;exitX=0;exitY=1;exitDx=0;exitDy=0;entryX=1;entryY=0;entryDx=0;entryDy=0;" edge="1" parent="1" source="h-7iVmk48eLcXwS1K5LQ-47" target="h-7iVmk48eLcXwS1K5LQ-46">
          <mxGeometry relative="1" as="geometry" />
        </mxCell>
        <mxCell id="h-7iVmk48eLcXwS1K5LQ-47" value="id_Pedido" style="ellipse;whiteSpace=wrap;html=1;align=center;fontStyle=4;" vertex="1" parent="1">
          <mxGeometry x="920" y="260" width="100" height="40" as="geometry" />
        </mxCell>
        <mxCell id="h-7iVmk48eLcXwS1K5LQ-53" style="edgeStyle=orthogonalEdgeStyle;rounded=0;orthogonalLoop=1;jettySize=auto;html=1;entryX=1;entryY=0.25;entryDx=0;entryDy=0;" edge="1" parent="1" source="h-7iVmk48eLcXwS1K5LQ-48" target="h-7iVmk48eLcXwS1K5LQ-46">
          <mxGeometry relative="1" as="geometry" />
        </mxCell>
        <mxCell id="h-7iVmk48eLcXwS1K5LQ-48" value="cliente" style="ellipse;whiteSpace=wrap;html=1;align=center;" vertex="1" parent="1">
          <mxGeometry x="1010" y="310" width="100" height="40" as="geometry" />
        </mxCell>
        <mxCell id="h-7iVmk48eLcXwS1K5LQ-54" style="edgeStyle=orthogonalEdgeStyle;rounded=0;orthogonalLoop=1;jettySize=auto;html=1;entryX=1;entryY=0.5;entryDx=0;entryDy=0;" edge="1" parent="1" source="h-7iVmk48eLcXwS1K5LQ-49" target="h-7iVmk48eLcXwS1K5LQ-46">
          <mxGeometry relative="1" as="geometry" />
        </mxCell>
        <mxCell id="h-7iVmk48eLcXwS1K5LQ-49" value="entregador" style="ellipse;whiteSpace=wrap;html=1;align=center;" vertex="1" parent="1">
          <mxGeometry x="1010" y="360" width="100" height="40" as="geometry" />
        </mxCell>
        <mxCell id="h-7iVmk48eLcXwS1K5LQ-65" style="edgeStyle=orthogonalEdgeStyle;rounded=0;orthogonalLoop=1;jettySize=auto;html=1;entryX=1;entryY=0.75;entryDx=0;entryDy=0;" edge="1" parent="1" source="h-7iVmk48eLcXwS1K5LQ-50" target="h-7iVmk48eLcXwS1K5LQ-46">
          <mxGeometry relative="1" as="geometry" />
        </mxCell>
        <mxCell id="h-7iVmk48eLcXwS1K5LQ-50" value="endereço" style="ellipse;whiteSpace=wrap;html=1;align=center;" vertex="1" parent="1">
          <mxGeometry x="1010" y="410" width="100" height="40" as="geometry" />
        </mxCell>
        <mxCell id="h-7iVmk48eLcXwS1K5LQ-55" value="horário_Pedido" style="ellipse;whiteSpace=wrap;html=1;align=center;" vertex="1" parent="1">
          <mxGeometry x="20" y="850" width="100" height="40" as="geometry" />
        </mxCell>
        <mxCell id="h-7iVmk48eLcXwS1K5LQ-61" style="edgeStyle=orthogonalEdgeStyle;rounded=0;orthogonalLoop=1;jettySize=auto;html=1;exitX=0.5;exitY=1;exitDx=0;exitDy=0;entryX=0.5;entryY=0;entryDx=0;entryDy=0;" edge="1" parent="1" source="h-7iVmk48eLcXwS1K5LQ-57" target="h-7iVmk48eLcXwS1K5LQ-3">
          <mxGeometry relative="1" as="geometry" />
        </mxCell>
        <mxCell id="h-7iVmk48eLcXwS1K5LQ-79" value="0:N" style="edgeLabel;html=1;align=center;verticalAlign=middle;resizable=0;points=[];fontSize=20;" vertex="1" connectable="0" parent="h-7iVmk48eLcXwS1K5LQ-61">
          <mxGeometry x="0.7116" relative="1" as="geometry">
            <mxPoint x="20" y="42" as="offset" />
          </mxGeometry>
        </mxCell>
        <mxCell id="h-7iVmk48eLcXwS1K5LQ-57" value="Faz" style="rhombus;whiteSpace=wrap;html=1;rounded=1;" vertex="1" parent="1">
          <mxGeometry x="230" y="170" width="80" height="80" as="geometry" />
        </mxCell>
        <mxCell id="h-7iVmk48eLcXwS1K5LQ-60" style="edgeStyle=orthogonalEdgeStyle;rounded=0;orthogonalLoop=1;jettySize=auto;html=1;entryX=0.5;entryY=0.088;entryDx=0;entryDy=0;entryPerimeter=0;" edge="1" parent="1" source="h-7iVmk48eLcXwS1K5LQ-2" target="h-7iVmk48eLcXwS1K5LQ-57">
          <mxGeometry relative="1" as="geometry" />
        </mxCell>
        <mxCell id="h-7iVmk48eLcXwS1K5LQ-78" value="N:0" style="edgeLabel;html=1;align=center;verticalAlign=middle;resizable=0;points=[];fontSize=19;" vertex="1" connectable="0" parent="h-7iVmk48eLcXwS1K5LQ-60">
          <mxGeometry x="-0.255" relative="1" as="geometry">
            <mxPoint x="113" y="20" as="offset" />
          </mxGeometry>
        </mxCell>
        <mxCell id="h-7iVmk48eLcXwS1K5LQ-66" style="edgeStyle=orthogonalEdgeStyle;rounded=0;orthogonalLoop=1;jettySize=auto;html=1;" edge="1" parent="1" source="h-7iVmk48eLcXwS1K5LQ-62" target="h-7iVmk48eLcXwS1K5LQ-46">
          <mxGeometry relative="1" as="geometry" />
        </mxCell>
        <mxCell id="h-7iVmk48eLcXwS1K5LQ-62" value="faz" style="rhombus;whiteSpace=wrap;html=1;rounded=1;" vertex="1" parent="1">
          <mxGeometry x="760" y="564" width="80" height="80" as="geometry" />
        </mxCell>
        <mxCell id="h-7iVmk48eLcXwS1K5LQ-72" style="edgeStyle=orthogonalEdgeStyle;rounded=0;orthogonalLoop=1;jettySize=auto;html=1;entryX=0.5;entryY=0;entryDx=0;entryDy=0;" edge="1" parent="1" source="h-7iVmk48eLcXwS1K5LQ-70" target="h-7iVmk48eLcXwS1K5LQ-46">
          <mxGeometry relative="1" as="geometry" />
        </mxCell>
        <mxCell id="h-7iVmk48eLcXwS1K5LQ-70" value="recebe" style="rhombus;whiteSpace=wrap;html=1;rounded=1;" vertex="1" parent="1">
          <mxGeometry x="480" y="110" width="80" height="80" as="geometry" />
        </mxCell>
        <mxCell id="h-7iVmk48eLcXwS1K5LQ-76" style="edgeStyle=orthogonalEdgeStyle;rounded=0;orthogonalLoop=1;jettySize=auto;html=1;entryX=1;entryY=0.5;entryDx=0;entryDy=0;" edge="1" parent="1" source="h-7iVmk48eLcXwS1K5LQ-74" target="h-7iVmk48eLcXwS1K5LQ-3">
          <mxGeometry relative="1" as="geometry" />
        </mxCell>
        <mxCell id="h-7iVmk48eLcXwS1K5LQ-74" value="Pega" style="rhombus;whiteSpace=wrap;html=1;rounded=1;" vertex="1" parent="1">
          <mxGeometry x="480" y="630" width="80" height="80" as="geometry" />
        </mxCell>
      </root>
    </mxGraphModel>
  </diagram>
</mxfile>
